<svg width="48" height="48" viewBox="0 0 48 48" fill="none" xmlns="http://www.w3.org/2000/svg">
<circle cx="24" cy="24" r="24" fill="#617AFF"/>
<path d="M24.7162 26.9535C24.7162 24.1081 26.6345 22.7328 27.9241 20.504C29.446 17.8735 30.6329 15.3349 30.6329 15.3349C30.6329 15.3349 31.853 17.7898 33.4605 20.504C34.9878 23.0825 36.502 24.1792 36.502 26.9535C36.502 28.6103 35.9913 29.8366 34.8862 31.0082C33.781 32.1797 32.1007 32.8102 30.5378 32.8102C28.9749 32.8102 27.2233 31.8951 26.1182 30.7236C25.013 29.5521 24.7162 28.2102 24.7162 26.9535Z" fill="white"/>
<path fill-rule="evenodd" clip-rule="evenodd" d="M21.6005 36.2646C23.6881 36.2646 25.9125 35.4113 27.3397 33.8947C28.8159 32.326 29.471 30.7477 29.471 28.5355C29.471 26.686 28.9814 25.4222 28.2016 24.1273C27.8374 23.5225 27.4172 22.9228 26.9359 22.2356C26.8806 22.1568 26.8246 22.0768 26.7678 21.9956C26.2236 21.2176 25.6238 20.3472 25.0203 19.3258C23.7888 17.2415 22.7071 15.2592 21.9337 13.7989C21.8788 13.6953 21.8254 13.5943 21.7737 13.496C21.7202 13.6028 21.665 13.7127 21.6081 13.8256C20.8631 15.3033 19.8248 17.2897 18.6556 19.3154C18.1313 20.2237 17.5493 21.0344 16.9963 21.7816C16.8912 21.9236 16.7879 22.0624 16.6862 22.1989C16.2417 22.796 15.8299 23.3491 15.4542 23.924C14.558 25.2953 13.9464 26.6766 13.9464 28.5355C13.9464 30.2507 14.3438 31.9643 15.7531 33.4619C17.2637 35.0671 19.6284 36.2646 21.6005 36.2646ZM22.8006 10.3409L22.8016 10.3429L22.8053 10.3503C22.8075 10.3548 22.8105 10.3608 22.8143 10.3684L22.8206 10.381C22.8343 10.4083 22.8548 10.4495 22.882 10.5035C22.9364 10.6116 23.0171 10.7714 23.1217 10.9764C23.3311 11.3864 23.636 11.9768 24.0167 12.6957C24.7787 14.1344 25.8421 16.083 27.0497 18.1267C27.6047 19.0661 28.1611 19.875 28.6993 20.6446C28.756 20.7255 28.8126 20.8063 28.8692 20.8871C29.3425 21.5625 29.8118 22.2319 30.2208 22.9112C31.169 24.4856 31.8281 26.1656 31.8281 28.5355C31.8281 31.363 30.9336 33.5151 29.0563 35.5101C27.13 37.5571 24.2554 38.6218 21.6005 38.6218C18.8301 38.6218 15.8795 37.0357 14.0366 35.0773C12.0924 33.0114 11.5892 30.643 11.5892 28.5355C11.5892 26.0668 12.4328 24.2385 13.481 22.6345C13.9001 21.9933 14.3648 21.3695 14.8118 20.7693C14.9095 20.6382 15.0063 20.5082 15.1016 20.3794C15.6446 19.6457 16.1601 18.9237 16.6141 18.1371C17.7541 16.162 18.7707 14.2175 19.5033 12.7644C19.8693 12.0386 20.1635 11.4371 20.3659 11.0179C20.4671 10.8083 20.5452 10.6443 20.5978 10.5333C20.6242 10.4778 20.6441 10.4355 20.6573 10.4074C20.6613 10.3989 20.6647 10.3917 20.6674 10.3858L20.6765 10.3666L20.6766 10.3663C20.868 9.95581 21.7306 8.30414 21.7306 8.30414C21.7306 8.30414 22.5994 9.93513 22.8006 10.3409Z" fill="white"/>
<path fill-rule="evenodd" clip-rule="evenodd" d="M20.8711 15.2644C20.2349 16.4865 19.4777 17.8912 18.6557 19.3154C18.1314 20.2237 17.5494 21.0344 16.9963 21.7816C16.8913 21.9236 16.788 22.0624 16.6863 22.1989C16.2418 22.796 15.8299 23.3491 15.4543 23.924C14.5581 25.2953 13.9464 26.6766 13.9464 28.5355C13.9464 30.2507 14.3439 31.9643 15.7532 33.4619C17.2638 35.0671 19.6285 36.2646 21.6006 36.2646C23.6882 36.2646 25.9126 35.4113 27.3398 33.8947C28.816 32.326 29.4711 30.7477 29.4711 28.5355C29.4711 26.686 28.9815 25.4222 28.2017 24.1273C27.8374 23.5225 27.4173 22.9228 26.936 22.2356L26.7679 21.9956C26.2237 21.2176 25.6239 20.3472 25.0204 19.3258C24.1593 17.8685 23.3715 16.461 22.7111 15.247C22.482 14.8259 22.2683 14.4281 22.0721 14.0595C22.025 13.971 21.9789 13.8841 21.9338 13.7989C21.8789 13.6953 21.8255 13.5943 21.7738 13.496C21.7203 13.6028 21.6651 13.7127 21.6082 13.8256C21.5752 13.891 21.5417 13.9573 21.5076 14.0247C21.3128 14.4093 21.0998 14.825 20.8711 15.2644ZM21.8066 16.9808C21.2797 17.9713 20.6912 19.0437 20.0649 20.1288C19.4922 21.121 18.8642 21.993 18.3042 22.7496C18.1976 22.8937 18.0929 23.0344 17.9914 23.1706C17.5412 23.7753 17.16 24.2882 16.8163 24.8141C16.0253 26.0246 15.5736 27.0974 15.5736 28.5355C15.5736 29.9788 15.8974 31.2409 16.9382 32.3468C18.2186 33.7075 20.1788 34.6375 21.6006 34.6375C23.296 34.6375 25.0719 33.9305 26.1548 32.7796C27.3541 31.5052 27.8439 30.323 27.8439 28.5355C27.8439 27.0451 27.4713 26.0685 26.8078 24.9667C26.478 24.419 26.0921 23.8669 25.6033 23.1692L25.4345 22.9282C24.8862 22.1443 24.2565 21.2315 23.6195 20.1535C22.9653 19.0463 22.3533 17.9684 21.8066 16.9808ZM23.0365 9.61785C22.72 9.00714 21.7307 8.30414 21.7307 8.30414L23.173 9.05738L23.0365 9.31934C22.9532 9.47963 22.8402 9.69734 22.7214 9.9275C22.6993 9.97039 23.0585 9.57514 23.0365 9.61785ZM20.8235 10.0665C21.5076 7.81791 20.7756 9.97592 20.7518 9.93075C20.6313 9.70279 20.5169 9.48727 20.4327 9.32865L20.2952 9.07022L20.2948 9.06937L21.7307 8.30414C21.7307 8.30414 21.1346 9.44562 20.8235 10.0665ZM21.7307 8.30414L24.571 10.2365C24.7771 10.6401 25.0782 11.2233 25.4547 11.9341C26.2088 13.358 27.2596 15.2833 28.4506 17.299C28.9722 18.1818 29.4985 18.9482 30.0328 19.712L30.2175 19.9757C30.6801 20.6358 31.1765 21.3441 31.6148 22.0718C32.679 23.839 33.4553 25.8062 33.4553 28.5355C33.4553 31.7878 32.3955 34.336 30.2413 36.6251C27.9702 39.0385 24.6467 40.2489 21.6006 40.2489C18.2784 40.2489 14.9235 38.394 12.8517 36.1924C10.538 33.7337 9.96218 30.913 9.96218 28.5355C9.96218 25.6456 10.966 23.5087 12.1191 21.7444C12.5655 21.0612 13.0552 20.4038 13.4938 19.815L13.507 19.7973C13.6049 19.6658 13.7002 19.5379 13.7938 19.4114C14.33 18.6869 14.7994 18.0263 15.205 17.3237C16.3247 15.3836 17.3265 13.4679 18.0505 12.0319C18.4117 11.3156 18.7017 10.7226 18.9006 10.3106C19 10.1046 19.0765 9.94416 19.1276 9.83637C19.1532 9.78247 19.1724 9.74177 19.1849 9.71517L19.2007 9.68137L19.2021 9.67844M21.7307 8.30414C21.9401 8.71412 23.636 11.9768 24.0168 12.6957C24.7788 14.1344 25.8422 16.083 27.0497 18.1267C27.6048 19.0661 28.1611 19.875 28.6994 20.6446L28.8693 20.8871C29.3426 21.5624 29.8118 22.232 30.2209 22.9112C31.1691 24.4856 31.8282 26.1656 31.8282 28.5355C31.8282 31.363 30.9337 33.5151 29.0564 35.5101C27.1301 37.5571 24.2555 38.6218 21.6006 38.6218C18.8301 38.6218 15.8796 37.0357 14.0366 35.0773C12.0925 33.0113 11.5893 30.643 11.5893 28.5355C11.5893 26.0668 12.4329 24.2385 13.4811 22.6345C13.9002 21.9933 14.3648 21.3694 14.8119 20.7693L14.8126 20.7683C14.91 20.6375 15.0066 20.5078 15.1017 20.3794C15.6447 19.6457 16.1602 18.9237 16.6142 18.1371C17.7542 16.162 18.7708 14.2175 19.5034 12.7644C19.8694 12.0386 20.1636 11.4371 20.366 11.0179C20.4671 10.8083 20.5453 10.6443 20.5979 10.5333C20.6242 10.4778 20.6442 10.4355 20.6574 10.4074M21.7307 8.30414L20.2883 7.55126C20.5677 7.01624 21.1205 6.67949 21.7241 6.67703C22.3277 6.67457 22.883 7.00646 23.1668 7.53919L21.7307 8.30414Z" fill="#617AFF"/>
</svg>
