<svg width="32" height="32" viewBox="0 0 32 32" fill="none" xmlns="http://www.w3.org/2000/svg">
<path d="M20 14.6667C20.7364 14.6667 21.3333 14.0697 21.3333 13.3333C21.3333 12.597 20.7364 12 20 12H18.6667C17.9303 12 17.3333 12.597 17.3333 13.3333C17.3333 14.0697 17.9303 14.6667 18.6667 14.6667H20Z" fill="#ffffff"/>
<path d="M14.6667 17.3333C14.6667 18.0697 14.0697 18.6667 13.3333 18.6667H12C11.2636 18.6667 10.6667 18.0697 10.6667 17.3333C10.6667 16.597 11.2636 16 12 16H13.3333C14.0697 16 14.6667 16.597 14.6667 17.3333Z" fill="#ffffff"/>
<path d="M13.3333 14.6667C14.0697 14.6667 14.6667 14.0697 14.6667 13.3333C14.6667 12.597 14.0697 12 13.3333 12H12C11.2636 12 10.6667 12.597 10.6667 13.3333C10.6667 14.0697 11.2636 14.6667 12 14.6667H13.3333Z" fill="#ffffff"/>
<path d="M21.3333 17.3333C21.3333 18.0697 20.7364 18.6667 20 18.6667H18.6667C17.9303 18.6667 17.3333 18.0697 17.3333 17.3333C17.3333 16.597 17.9303 16 18.6667 16H20C20.7364 16 21.3333 16.597 21.3333 17.3333Z" fill="#ffffff"/>
<path d="M13.3333 22.6667C14.0697 22.6667 14.6667 22.0697 14.6667 21.3333C14.6667 20.597 14.0697 20 13.3333 20H12C11.2636 20 10.6667 20.597 10.6667 21.3333C10.6667 22.0697 11.2636 22.6667 12 22.6667H13.3333Z" fill="#ffffff"/>
<path d="M21.3333 21.3333C21.3333 22.0697 20.7364 22.6667 20 22.6667H18.6667C17.9303 22.6667 17.3333 22.0697 17.3333 21.3333C17.3333 20.597 17.9303 20 18.6667 20H20C20.7364 20 21.3333 20.597 21.3333 21.3333Z" fill="#ffffff"/>
<path fill-rule="evenodd" clip-rule="evenodd" d="M17.323 5.88703C16.5032 5.41856 15.4968 5.41856 14.677 5.88703L6.67696 10.4585C5.8461 10.9332 5.33333 11.8168 5.33333 12.7738V25.3333H3.33333C2.59695 25.3333 2 25.9303 2 26.6667C2 27.4031 2.59695 28 3.33333 28H28.6667C29.403 28 30 27.4031 30 26.6667C30 25.9303 29.403 25.3333 28.6667 25.3333H26.6667V12.7738C26.6667 11.8168 26.1539 10.9332 25.323 10.4585L17.323 5.88703ZM17.3333 25.3333V24C17.3333 23.2636 16.7364 22.6667 16 22.6667C15.2636 22.6667 14.6667 23.2636 14.6667 24V25.3333H8V12.7738L16 8.20234L24 12.7738V25.3333H17.3333Z" fill="#ffffff"/>
</svg>
