<svg width="21" height="20" viewBox="0 0 21 20" fill="none" xmlns="http://www.w3.org/2000/svg">
<path d="M5.5 2C6.05229 2 6.5 1.55228 6.5 1C6.5 0.447715 6.05229 0 5.5 0H4C1.79086 0 0 1.79086 0 4V16C0 18.2091 1.79086 20 4 20H5.5C6.05228 20 6.5 19.5523 6.5 19C6.5 18.4477 6.05229 18 5.5 18H4C2.89543 18 2 17.1046 2 16L2 4C2 2.89543 2.89543 2 4 2H5.5Z" fill="black"/>
<path d="M20.7071 10.7071C21.0976 10.3166 21.0976 9.68342 20.7071 9.29289L16.7071 5.29289C16.3166 4.90237 15.6834 4.90237 15.2929 5.29289C14.9024 5.68342 14.9024 6.31658 15.2929 6.70711L17.5858 9L6 9C5.44771 9 5 9.44771 5 10C5 10.5523 5.44771 11 6 11L17.5858 11L15.2929 13.2929C14.9024 13.6834 14.9024 14.3166 15.2929 14.7071C15.6834 15.0976 16.3166 15.0976 16.7071 14.7071L20.7071 10.7071Z" fill="black"/>
</svg>
