<svg width="24" height="24" viewBox="0 0 24 24" fill="none" xmlns="http://www.w3.org/2000/svg">
<path fill-rule="evenodd" clip-rule="evenodd" d="M4 1.5C2.61929 1.5 1.5 2.61929 1.5 4V9C1.5 10.3807 2.61929 11.5 4 11.5H19C20.3807 11.5 21.5 10.3807 21.5 9V4C21.5 2.61929 20.3807 1.5 19 1.5H4ZM3.5 4C3.5 3.72386 3.72386 3.5 4 3.5L19 3.5C19.2761 3.5 19.5 3.72386 19.5 4V9C19.5 9.27614 19.2761 9.5 19 9.5H4C3.72386 9.5 3.5 9.27614 3.5 9L3.5 4Z" fill="black"/>
<path fill-rule="evenodd" clip-rule="evenodd" d="M21.5 15C21.5 13.6193 20.3807 12.5 19 12.5L4 12.5C2.61929 12.5 1.5 13.6193 1.5 15V20C1.5 21.3807 2.61929 22.5 4 22.5H19C20.3807 22.5 21.5 21.3807 21.5 20V15ZM19 14.5C19.2761 14.5 19.5 14.7239 19.5 15V20C19.5 20.2761 19.2761 20.5 19 20.5H4C3.72386 20.5 3.5 20.2761 3.5 20L3.5 15C3.5 14.7239 3.72386 14.5 4 14.5L19 14.5Z" fill="black"/>
</svg>
