<svg width="24" height="24" viewBox="0 0 24 24" fill="none" xmlns="http://www.w3.org/2000/svg">
<path fill-rule="evenodd" clip-rule="evenodd" d="M4 11.5C2.61929 11.5 1.5 10.3807 1.5 9V4C1.5 2.61929 2.61929 1.5 4 1.5H9C10.3807 1.5 11.5 2.61929 11.5 4V9C11.5 10.3807 10.3807 11.5 9 11.5H4ZM3.5 9C3.5 9.27614 3.72386 9.5 4 9.5L9 9.5C9.27614 9.5 9.5 9.27614 9.5 9V4C9.5 3.72386 9.27614 3.5 9 3.5L4 3.5C3.72386 3.5 3.5 3.72386 3.5 4L3.5 9Z" fill="black"/>
<path fill-rule="evenodd" clip-rule="evenodd" d="M1.5 20C1.5 21.3807 2.61929 22.5 4 22.5H9C10.3807 22.5 11.5 21.3807 11.5 20V15C11.5 13.6193 10.3807 12.5 9 12.5H4C2.61929 12.5 1.5 13.6193 1.5 15V20ZM4 20.5C3.72386 20.5 3.5 20.2761 3.5 20L3.5 15C3.5 14.7239 3.72386 14.5 4 14.5H9C9.27614 14.5 9.5 14.7239 9.5 15V20C9.5 20.2761 9.27614 20.5 9 20.5H4Z" fill="black"/>
<path fill-rule="evenodd" clip-rule="evenodd" d="M12.5 20C12.5 21.3807 13.6193 22.5 15 22.5H20C21.3807 22.5 22.5 21.3807 22.5 20V15C22.5 13.6193 21.3807 12.5 20 12.5H15C13.6193 12.5 12.5 13.6193 12.5 15V20ZM15 20.5C14.7239 20.5 14.5 20.2761 14.5 20V15C14.5 14.7239 14.7239 14.5 15 14.5H20C20.2761 14.5 20.5 14.7239 20.5 15V20C20.5 20.2761 20.2761 20.5 20 20.5H15Z" fill="black"/>
<path fill-rule="evenodd" clip-rule="evenodd" d="M12.5 9C12.5 10.3807 13.6193 11.5 15 11.5H20C21.3807 11.5 22.5 10.3807 22.5 9V4C22.5 2.61929 21.3807 1.5 20 1.5H15C13.6193 1.5 12.5 2.61929 12.5 4V9ZM15 9.5C14.7239 9.5 14.5 9.27614 14.5 9V4C14.5 3.72386 14.7239 3.5 15 3.5L20 3.5C20.2761 3.5 20.5 3.72386 20.5 4V9C20.5 9.27614 20.2761 9.5 20 9.5L15 9.5Z" fill="black"/>
</svg>
