<svg width="25" height="24" viewBox="0 0 25 24" fill="none" xmlns="http://www.w3.org/2000/svg">
<path fill-rule="evenodd" clip-rule="evenodd" d="M6.10484 1.58141C6.47183 1.42354 6.89756 1.49925 7.18762 1.77395L7.19026 1.77644L7.20079 1.78635L7.24445 1.82712C7.28316 1.86312 7.34042 1.91599 7.41276 1.98175C7.55768 2.1135 7.76184 2.29582 7.99778 2.49721C8.48149 2.91009 9.05507 3.36532 9.51662 3.64381C11.0238 4.55318 13.4009 4.81389 15.5652 4.79804C16.618 4.79033 17.5673 4.7184 18.2536 4.64821C18.5961 4.61318 18.8715 4.57875 19.0596 4.55334C19.1536 4.54064 19.2257 4.5302 19.2734 4.5231L19.3262 4.51508L19.3382 4.51319L19.3403 4.51286C19.6921 4.45605 20.0479 4.59071 20.2737 4.86642C20.4995 5.14221 20.5615 5.51737 20.4363 5.85115L19.1097 9.38878L21.348 12.97C21.5225 13.2492 21.5484 13.5964 21.4172 13.8984C21.2861 14.2004 21.0147 14.4184 20.6916 14.4815C15.4234 15.5098 12.2376 14.7997 7.5 13.5398V21.5C7.5 22.0523 7.05228 22.5 6.5 22.5C5.94772 22.5 5.5 22.0523 5.5 21.5V2.50002C5.5 2.10049 5.73782 1.73929 6.10484 1.58141ZM15.5799 6.79799C16.4864 6.79135 17.3178 6.74055 17.9887 6.68215L17.0637 9.1489C16.9544 9.44035 16.987 9.76607 17.152 10.03L18.8603 12.7634C14.7277 13.3458 11.9805 12.6668 7.5 11.4697V4.67074C7.82259 4.91957 8.16236 5.16254 8.48338 5.35624C10.503 6.57484 13.3759 6.81413 15.5799 6.79799Z" fill="white"/>
</svg>
