<svg width="25" height="24" viewBox="0 0 25 24" fill="none" xmlns="http://www.w3.org/2000/svg">
<path fill-rule="evenodd" clip-rule="evenodd" d="M12.6664 5.5C10.1811 5.5 8.16641 7.51472 8.16641 10C8.16641 12.4853 10.1811 14.5 12.6664 14.5C15.1517 14.5 17.1664 12.4853 17.1664 10C17.1664 7.51472 15.1517 5.5 12.6664 5.5ZM10.1664 10C10.1664 8.61929 11.2857 7.5 12.6664 7.5C14.0471 7.5 15.1664 8.61929 15.1664 10C15.1664 11.3807 14.0471 12.5 12.6664 12.5C11.2857 12.5 10.1664 11.3807 10.1664 10Z" fill="black"/>
<path fill-rule="evenodd" clip-rule="evenodd" d="M8.47565 3.59199C11.0134 1.90017 14.3195 1.90017 16.8572 3.59199C20.2881 5.87925 21.2513 10.495 19.0215 13.9635L15.1899 19.9238C14.009 21.7607 11.3238 21.7607 10.1429 19.9238L6.31131 13.9635C4.08154 10.495 5.04476 5.87925 8.47565 3.59199ZM9.58506 5.25609C11.451 4.01214 13.8819 4.01214 15.7478 5.25609C18.2704 6.93785 18.9787 10.3317 17.3392 12.882L13.5076 18.8422C13.114 19.4546 12.2189 19.4546 11.8252 18.8422L7.99367 12.882C6.35418 10.3317 7.06241 6.93785 9.58506 5.25609Z" fill="black"/>
</svg>
