<svg width="213" height="48" viewBox="0 0 213 48" fill="none" xmlns="http://www.w3.org/2000/svg">
<circle cx="24" cy="24" r="24" fill="#617AFF"/>
<path d="M24.7162 26.9535C24.7162 24.1081 26.6345 22.7328 27.9241 20.504C29.446 17.8735 30.6329 15.3349 30.6329 15.3349C30.6329 15.3349 31.853 17.7898 33.4605 20.504C34.9878 23.0825 36.502 24.1792 36.502 26.9535C36.502 28.6103 35.9913 29.8366 34.8862 31.0082C33.781 32.1797 32.1007 32.8102 30.5378 32.8102C28.9749 32.8102 27.2233 31.8951 26.1182 30.7236C25.013 29.5521 24.7162 28.2102 24.7162 26.9535Z" fill="white"/>
<path fill-rule="evenodd" clip-rule="evenodd" d="M21.6005 36.2646C23.6881 36.2646 25.9125 35.4113 27.3397 33.8947C28.8159 32.326 29.471 30.7477 29.471 28.5355C29.471 26.686 28.9814 25.4222 28.2016 24.1273C27.8374 23.5225 27.4172 22.9228 26.9359 22.2356C26.8806 22.1568 26.8246 22.0768 26.7678 21.9956C26.2236 21.2176 25.6238 20.3472 25.0203 19.3258C23.7888 17.2415 22.7071 15.2592 21.9337 13.7989C21.8788 13.6953 21.8254 13.5943 21.7737 13.496C21.7202 13.6028 21.665 13.7127 21.6081 13.8256C20.8631 15.3033 19.8248 17.2897 18.6556 19.3154C18.1313 20.2237 17.5493 21.0344 16.9963 21.7816C16.8912 21.9236 16.7879 22.0624 16.6862 22.1989C16.2417 22.796 15.8299 23.3491 15.4542 23.924C14.558 25.2953 13.9464 26.6766 13.9464 28.5355C13.9464 30.2507 14.3438 31.9643 15.7531 33.4619C17.2637 35.0671 19.6284 36.2646 21.6005 36.2646ZM22.8006 10.3409L22.8016 10.3429L22.8053 10.3503C22.8075 10.3548 22.8105 10.3608 22.8143 10.3684L22.8206 10.381C22.8343 10.4083 22.8548 10.4495 22.882 10.5035C22.9364 10.6116 23.0171 10.7714 23.1217 10.9764C23.3311 11.3864 23.636 11.9768 24.0167 12.6957C24.7787 14.1344 25.8421 16.083 27.0497 18.1267C27.6047 19.0661 28.1611 19.875 28.6993 20.6446C28.756 20.7255 28.8126 20.8063 28.8692 20.8871C29.3425 21.5625 29.8118 22.2319 30.2208 22.9112C31.169 24.4856 31.8281 26.1656 31.8281 28.5355C31.8281 31.363 30.9336 33.5151 29.0563 35.5101C27.13 37.5571 24.2554 38.6218 21.6005 38.6218C18.8301 38.6218 15.8795 37.0357 14.0366 35.0773C12.0924 33.0114 11.5892 30.643 11.5892 28.5355C11.5892 26.0668 12.4328 24.2385 13.481 22.6345C13.9001 21.9933 14.3648 21.3695 14.8118 20.7693C14.9095 20.6382 15.0063 20.5082 15.1016 20.3794C15.6446 19.6457 16.1601 18.9237 16.6141 18.1371C17.7541 16.162 18.7707 14.2175 19.5033 12.7644C19.8693 12.0386 20.1635 11.4371 20.3659 11.0179C20.4671 10.8083 20.5452 10.6443 20.5978 10.5333C20.6242 10.4778 20.6441 10.4355 20.6573 10.4074C20.6613 10.3989 20.6647 10.3917 20.6674 10.3858L20.6765 10.3666L20.6766 10.3663C20.868 9.95581 21.7306 8.30414 21.7306 8.30414C21.7306 8.30414 22.5994 9.93513 22.8006 10.3409Z" fill="white"/>
<path fill-rule="evenodd" clip-rule="evenodd" d="M20.8711 15.2644C20.2349 16.4865 19.4777 17.8912 18.6557 19.3154C18.1314 20.2237 17.5494 21.0344 16.9963 21.7816C16.8913 21.9236 16.788 22.0624 16.6863 22.1989C16.2418 22.796 15.8299 23.3491 15.4543 23.924C14.5581 25.2953 13.9464 26.6766 13.9464 28.5355C13.9464 30.2507 14.3439 31.9643 15.7532 33.4619C17.2638 35.0671 19.6285 36.2646 21.6006 36.2646C23.6882 36.2646 25.9126 35.4113 27.3398 33.8947C28.816 32.326 29.4711 30.7477 29.4711 28.5355C29.4711 26.686 28.9815 25.4222 28.2017 24.1273C27.8374 23.5225 27.4173 22.9228 26.936 22.2356L26.7679 21.9956C26.2237 21.2176 25.6239 20.3472 25.0204 19.3258C24.1593 17.8685 23.3715 16.461 22.7111 15.247C22.482 14.8259 22.2683 14.4281 22.0721 14.0595C22.025 13.971 21.9789 13.8841 21.9338 13.7989C21.8789 13.6953 21.8255 13.5943 21.7738 13.496C21.7203 13.6028 21.6651 13.7127 21.6082 13.8256C21.5752 13.891 21.5417 13.9573 21.5076 14.0247C21.3128 14.4093 21.0998 14.825 20.8711 15.2644ZM21.8066 16.9808C21.2797 17.9713 20.6912 19.0437 20.0649 20.1288C19.4922 21.121 18.8642 21.993 18.3042 22.7496C18.1976 22.8937 18.0929 23.0344 17.9914 23.1706C17.5412 23.7753 17.16 24.2882 16.8163 24.8141C16.0253 26.0246 15.5736 27.0974 15.5736 28.5355C15.5736 29.9788 15.8974 31.2409 16.9382 32.3468C18.2186 33.7075 20.1788 34.6375 21.6006 34.6375C23.296 34.6375 25.0719 33.9305 26.1548 32.7796C27.3541 31.5052 27.8439 30.323 27.8439 28.5355C27.8439 27.0451 27.4713 26.0685 26.8078 24.9667C26.478 24.419 26.0921 23.8669 25.6033 23.1692L25.4345 22.9282C24.8862 22.1443 24.2565 21.2315 23.6195 20.1535C22.9653 19.0463 22.3533 17.9684 21.8066 16.9808ZM23.0365 9.61785C22.72 9.00714 21.7307 8.30414 21.7307 8.30414L23.173 9.05738L23.0365 9.31934C22.9532 9.47963 22.8402 9.69734 22.7214 9.9275C22.6993 9.97039 23.0585 9.57514 23.0365 9.61785ZM20.8235 10.0665C21.5076 7.81791 20.7756 9.97592 20.7518 9.93075C20.6313 9.70279 20.5169 9.48727 20.4327 9.32865L20.2952 9.07022L20.2948 9.06937L21.7307 8.30414C21.7307 8.30414 21.1346 9.44562 20.8235 10.0665ZM21.7307 8.30414L24.571 10.2365C24.7771 10.6401 25.0782 11.2233 25.4547 11.9341C26.2088 13.358 27.2596 15.2833 28.4506 17.299C28.9722 18.1818 29.4985 18.9482 30.0328 19.712L30.2175 19.9757C30.6801 20.6358 31.1765 21.3441 31.6148 22.0718C32.679 23.839 33.4553 25.8062 33.4553 28.5355C33.4553 31.7878 32.3955 34.336 30.2413 36.6251C27.9702 39.0385 24.6467 40.2489 21.6006 40.2489C18.2784 40.2489 14.9235 38.394 12.8517 36.1924C10.538 33.7337 9.96218 30.913 9.96218 28.5355C9.96218 25.6456 10.966 23.5087 12.1191 21.7444C12.5655 21.0612 13.0552 20.4038 13.4938 19.815L13.507 19.7973C13.6049 19.6658 13.7002 19.5379 13.7938 19.4114C14.33 18.6869 14.7994 18.0263 15.205 17.3237C16.3247 15.3836 17.3265 13.4679 18.0505 12.0319C18.4117 11.3156 18.7017 10.7226 18.9006 10.3106C19 10.1046 19.0765 9.94416 19.1276 9.83637C19.1532 9.78247 19.1724 9.74177 19.1849 9.71517L19.2007 9.68137L19.2021 9.67844M21.7307 8.30414C21.9401 8.71412 23.636 11.9768 24.0168 12.6957C24.7788 14.1344 25.8422 16.083 27.0497 18.1267C27.6048 19.0661 28.1611 19.875 28.6994 20.6446L28.8693 20.8871C29.3426 21.5624 29.8118 22.232 30.2209 22.9112C31.1691 24.4856 31.8282 26.1656 31.8282 28.5355C31.8282 31.363 30.9337 33.5151 29.0564 35.5101C27.1301 37.5571 24.2555 38.6218 21.6006 38.6218C18.8301 38.6218 15.8796 37.0357 14.0366 35.0773C12.0925 33.0113 11.5893 30.643 11.5893 28.5355C11.5893 26.0668 12.4329 24.2385 13.4811 22.6345C13.9002 21.9933 14.3648 21.3694 14.8119 20.7693L14.8126 20.7683C14.91 20.6375 15.0066 20.5078 15.1017 20.3794C15.6447 19.6457 16.1602 18.9237 16.6142 18.1371C17.7542 16.162 18.7708 14.2175 19.5034 12.7644C19.8694 12.0386 20.1636 11.4371 20.366 11.0179C20.4671 10.8083 20.5453 10.6443 20.5979 10.5333C20.6242 10.4778 20.6442 10.4355 20.6574 10.4074M21.7307 8.30414L20.2883 7.55126C20.5677 7.01624 21.1205 6.67949 21.7241 6.67703C22.3277 6.67457 22.883 7.00646 23.1668 7.53919L21.7307 8.30414Z" fill="#617AFF"/>
<path d="M66.3949 33L61.4688 15.5455H64.8693L68.0142 28.3722H68.1761L71.5341 15.5455H74.6278L77.9943 28.3807H78.1477L81.2926 15.5455H84.6932L79.767 33H76.6477L73.1534 20.7528H73.017L69.5142 33H66.3949ZM88.7004 33.2642C87.8709 33.2642 87.1237 33.1165 86.4589 32.821C85.7998 32.5199 85.2771 32.0767 84.8907 31.4915C84.5101 30.9062 84.3197 30.1847 84.3197 29.3267C84.3197 28.5881 84.4561 27.9773 84.7288 27.4943C85.0015 27.0114 85.3737 26.625 85.8453 26.3352C86.3169 26.0455 86.8481 25.8267 87.439 25.679C88.0356 25.5256 88.6521 25.4148 89.2885 25.3466C90.0555 25.267 90.6777 25.196 91.1549 25.1335C91.6322 25.0653 91.9788 24.9631 92.1947 24.8267C92.4163 24.6847 92.5271 24.4659 92.5271 24.1705V24.1193C92.5271 23.4773 92.3368 22.9801 91.9561 22.6278C91.5754 22.2756 91.0271 22.0994 90.3112 22.0994C89.5555 22.0994 88.9561 22.2642 88.5129 22.5938C88.0754 22.9233 87.7799 23.3125 87.6265 23.7614L84.7459 23.3523C84.9731 22.5568 85.3481 21.892 85.8709 21.358C86.3936 20.8182 87.0328 20.4148 87.7885 20.1477C88.5441 19.875 89.3794 19.7386 90.2941 19.7386C90.9248 19.7386 91.5527 19.8125 92.1777 19.9602C92.8027 20.108 93.3737 20.3523 93.8907 20.6932C94.4078 21.0284 94.8226 21.4858 95.1351 22.0653C95.4532 22.6449 95.6123 23.3693 95.6123 24.2386V33H92.6464V31.2017H92.5441C92.3566 31.5653 92.0924 31.9062 91.7515 32.2244C91.4163 32.5369 90.993 32.7898 90.4816 32.983C89.976 33.1705 89.3822 33.2642 88.7004 33.2642ZM89.5015 30.9972C90.1209 30.9972 90.6578 30.875 91.1123 30.6307C91.5669 30.3807 91.9163 30.0511 92.1606 29.642C92.4106 29.233 92.5356 28.7869 92.5356 28.304V26.7614C92.439 26.8409 92.2743 26.9148 92.0413 26.983C91.814 27.0511 91.5584 27.1108 91.2743 27.1619C90.9902 27.2131 90.7089 27.2585 90.4305 27.2983C90.1521 27.3381 89.9106 27.3722 89.7061 27.4006C89.2459 27.4631 88.8339 27.5653 88.4703 27.7074C88.1066 27.8494 87.8197 28.0483 87.6095 28.304C87.3993 28.554 87.2941 28.8778 87.2941 29.2756C87.2941 29.8438 87.5015 30.2727 87.9163 30.5625C88.3311 30.8523 88.8595 30.9972 89.5015 30.9972ZM104.772 19.9091V22.2955H97.246V19.9091H104.772ZM99.1039 16.7727H102.189V29.0625C102.189 29.4773 102.252 29.7955 102.377 30.017C102.507 30.233 102.678 30.3807 102.888 30.4602C103.098 30.5398 103.331 30.5795 103.587 30.5795C103.78 30.5795 103.956 30.5653 104.115 30.5369C104.28 30.5085 104.405 30.483 104.49 30.4602L105.01 32.8722C104.845 32.929 104.61 32.9915 104.303 33.0597C104.002 33.1278 103.632 33.1676 103.195 33.179C102.422 33.2017 101.726 33.0852 101.107 32.8295C100.487 32.5682 99.996 32.1648 99.6323 31.6193C99.2744 31.0739 99.0982 30.392 99.1039 29.5739V16.7727ZM112.527 33.2557C111.214 33.2557 110.081 32.983 109.126 32.4375C108.177 31.8864 107.447 31.108 106.936 30.1023C106.424 29.0909 106.169 27.9006 106.169 26.5312C106.169 25.1847 106.424 24.0028 106.936 22.9858C107.453 21.9631 108.174 21.1676 109.1 20.5994C110.027 20.0256 111.115 19.7386 112.365 19.7386C113.172 19.7386 113.933 19.8693 114.649 20.1307C115.37 20.3864 116.007 20.7841 116.558 21.3239C117.115 21.8636 117.552 22.5511 117.87 23.3864C118.189 24.2159 118.348 25.2045 118.348 26.3523V27.2983H107.618V25.2188H115.39C115.385 24.6278 115.257 24.1023 115.007 23.642C114.757 23.1761 114.407 22.8097 113.958 22.5426C113.515 22.2756 112.998 22.142 112.407 22.142C111.777 22.142 111.223 22.2955 110.745 22.6023C110.268 22.9034 109.896 23.3011 109.629 23.7955C109.368 24.2841 109.234 24.821 109.228 25.4062V27.2216C109.228 27.983 109.368 28.6364 109.646 29.1818C109.924 29.7216 110.314 30.1364 110.814 30.4261C111.314 30.7102 111.899 30.8523 112.569 30.8523C113.018 30.8523 113.424 30.7898 113.788 30.6648C114.152 30.5341 114.467 30.3438 114.734 30.0938C115.001 29.8438 115.203 29.5341 115.339 29.1648L118.22 29.4886C118.038 30.25 117.691 30.9148 117.18 31.483C116.674 32.0455 116.027 32.483 115.237 32.7955C114.447 33.1023 113.544 33.2557 112.527 33.2557ZM120.478 33V19.9091H123.469V22.0909H123.606C123.844 21.3352 124.253 20.7528 124.833 20.3438C125.418 19.929 126.086 19.7216 126.836 19.7216C127.006 19.7216 127.196 19.7301 127.407 19.7472C127.623 19.7585 127.802 19.7784 127.944 19.8068V22.6449C127.813 22.5994 127.606 22.5597 127.321 22.5256C127.043 22.4858 126.773 22.4659 126.512 22.4659C125.949 22.4659 125.444 22.5881 124.995 22.8324C124.552 23.071 124.202 23.4034 123.946 23.8295C123.691 24.2557 123.563 24.7472 123.563 25.304V33H120.478ZM134.685 33.2557C133.406 33.2557 132.298 32.9744 131.361 32.4119C130.423 31.8494 129.696 31.0625 129.179 30.0511C128.667 29.0398 128.412 27.858 128.412 26.5057C128.412 25.1534 128.667 23.9687 129.179 22.9517C129.696 21.9347 130.423 21.1449 131.361 20.5824C132.298 20.0199 133.406 19.7386 134.685 19.7386C135.963 19.7386 137.071 20.0199 138.008 20.5824C138.946 21.1449 139.67 21.9347 140.182 22.9517C140.699 23.9687 140.957 25.1534 140.957 26.5057C140.957 27.858 140.699 29.0398 140.182 30.0511C139.67 31.0625 138.946 31.8494 138.008 32.4119C137.071 32.9744 135.963 33.2557 134.685 33.2557ZM134.702 30.7841C135.395 30.7841 135.974 30.5937 136.44 30.2131C136.906 29.8267 137.253 29.3097 137.48 28.6619C137.713 28.0142 137.829 27.2926 137.829 26.4972C137.829 25.696 137.713 24.9716 137.48 24.3239C137.253 23.6705 136.906 23.1506 136.44 22.7642C135.974 22.3778 135.395 22.1847 134.702 22.1847C133.991 22.1847 133.4 22.3778 132.929 22.7642C132.463 23.1506 132.113 23.6705 131.881 24.3239C131.653 24.9716 131.54 25.696 131.54 26.4972C131.54 27.2926 131.653 28.0142 131.881 28.6619C132.113 29.3097 132.463 29.8267 132.929 30.2131C133.4 30.5937 133.991 30.7841 134.702 30.7841ZM146.181 25.3295V33H143.096V19.9091H146.045V22.1335H146.198C146.499 21.4006 146.979 20.8182 147.638 20.3864C148.303 19.9545 149.124 19.7386 150.102 19.7386C151.005 19.7386 151.792 19.9318 152.462 20.3182C153.138 20.7045 153.661 21.2642 154.031 21.9972C154.406 22.7301 154.59 23.6193 154.584 24.6648V33H151.499V25.142C151.499 24.267 151.272 23.5824 150.817 23.0881C150.369 22.5937 149.746 22.3466 148.951 22.3466C148.411 22.3466 147.931 22.4659 147.511 22.7045C147.096 22.9375 146.769 23.2756 146.531 23.7188C146.298 24.1619 146.181 24.6989 146.181 25.3295ZM157.241 33V19.9091H160.19V22.1335H160.343C160.616 21.3835 161.068 20.7983 161.698 20.3778C162.329 19.9517 163.082 19.7386 163.957 19.7386C164.843 19.7386 165.59 19.9545 166.198 20.3864C166.812 20.8125 167.244 21.3949 167.494 22.1335H167.63C167.92 21.4062 168.408 20.8267 169.096 20.3949C169.789 19.9574 170.61 19.7386 171.559 19.7386C172.764 19.7386 173.747 20.1193 174.508 20.8807C175.269 21.642 175.65 22.7528 175.65 24.2131V33H172.556V24.6903C172.556 23.8778 172.34 23.2841 171.908 22.9091C171.477 22.5284 170.948 22.3381 170.323 22.3381C169.579 22.3381 168.997 22.571 168.576 23.0369C168.161 23.4972 167.954 24.0966 167.954 24.8352V33H164.928V24.5625C164.928 23.8864 164.724 23.3466 164.315 22.9432C163.911 22.5398 163.383 22.3381 162.729 22.3381C162.286 22.3381 161.883 22.4517 161.519 22.679C161.156 22.9006 160.866 23.2159 160.65 23.625C160.434 24.0284 160.326 24.5 160.326 25.0398V33H157.241ZM182.067 33.2642C181.237 33.2642 180.49 33.1165 179.825 32.821C179.166 32.5199 178.644 32.0767 178.257 31.4915C177.877 30.9062 177.686 30.1847 177.686 29.3267C177.686 28.5881 177.823 27.9773 178.095 27.4943C178.368 27.0114 178.74 26.625 179.212 26.3352C179.683 26.0455 180.215 25.8267 180.806 25.679C181.402 25.5256 182.019 25.4148 182.655 25.3466C183.422 25.267 184.044 25.196 184.522 25.1335C184.999 25.0653 185.345 24.9631 185.561 24.8267C185.783 24.6847 185.894 24.4659 185.894 24.1705V24.1193C185.894 23.4773 185.703 22.9801 185.323 22.6278C184.942 22.2756 184.394 22.0994 183.678 22.0994C182.922 22.0994 182.323 22.2642 181.879 22.5938C181.442 22.9233 181.147 23.3125 180.993 23.7614L178.112 23.3523C178.34 22.5568 178.715 21.892 179.237 21.358C179.76 20.8182 180.399 20.4148 181.155 20.1477C181.911 19.875 182.746 19.7386 183.661 19.7386C184.291 19.7386 184.919 19.8125 185.544 19.9602C186.169 20.108 186.74 20.3523 187.257 20.6932C187.774 21.0284 188.189 21.4858 188.502 22.0653C188.82 22.6449 188.979 23.3693 188.979 24.2386V33H186.013V31.2017H185.911C185.723 31.5653 185.459 31.9062 185.118 32.2244C184.783 32.5369 184.36 32.7898 183.848 32.983C183.343 33.1705 182.749 33.2642 182.067 33.2642ZM182.868 30.9972C183.487 30.9972 184.024 30.875 184.479 30.6307C184.933 30.3807 185.283 30.0511 185.527 29.642C185.777 29.233 185.902 28.7869 185.902 28.304V26.7614C185.806 26.8409 185.641 26.9148 185.408 26.983C185.181 27.0511 184.925 27.1108 184.641 27.1619C184.357 27.2131 184.075 27.2585 183.797 27.2983C183.519 27.3381 183.277 27.3722 183.073 27.4006C182.612 27.4631 182.2 27.5653 181.837 27.7074C181.473 27.8494 181.186 28.0483 180.976 28.304C180.766 28.554 180.661 28.8778 180.661 29.2756C180.661 29.8438 180.868 30.2727 181.283 30.5625C181.698 30.8523 182.226 30.9972 182.868 30.9972ZM191.601 33V19.9091H194.593V22.0909H194.729C194.968 21.3352 195.377 20.7528 195.956 20.3438C196.541 19.929 197.209 19.7216 197.959 19.7216C198.13 19.7216 198.32 19.7301 198.53 19.7472C198.746 19.7585 198.925 19.7784 199.067 19.8068V22.6449C198.936 22.5994 198.729 22.5597 198.445 22.5256C198.166 22.4858 197.897 22.4659 197.635 22.4659C197.073 22.4659 196.567 22.5881 196.118 22.8324C195.675 23.071 195.326 23.4034 195.07 23.8295C194.814 24.2557 194.686 24.7472 194.686 25.304V33H191.601ZM210.983 23.3693L208.171 23.6761C208.091 23.392 207.952 23.125 207.753 22.875C207.56 22.625 207.299 22.4233 206.969 22.2699C206.64 22.1165 206.236 22.0398 205.759 22.0398C205.117 22.0398 204.577 22.179 204.14 22.4574C203.708 22.7358 203.495 23.0966 203.5 23.5398C203.495 23.9205 203.634 24.2301 203.918 24.4688C204.208 24.7074 204.685 24.9034 205.35 25.0568L207.583 25.5341C208.821 25.8011 209.742 26.2244 210.344 26.804C210.952 27.3835 211.259 28.142 211.265 29.0795C211.259 29.9034 211.017 30.6307 210.54 31.2614C210.069 31.8864 209.412 32.375 208.571 32.7273C207.731 33.0795 206.765 33.2557 205.674 33.2557C204.071 33.2557 202.782 32.9205 201.804 32.25C200.827 31.5739 200.245 30.6335 200.057 29.429L203.066 29.1392C203.202 29.7301 203.492 30.1761 203.935 30.4773C204.378 30.7784 204.955 30.929 205.665 30.929C206.398 30.929 206.986 30.7784 207.429 30.4773C207.878 30.1761 208.103 29.804 208.103 29.3608C208.103 28.9858 207.958 28.6761 207.668 28.4318C207.384 28.1875 206.941 28 206.338 27.8693L204.106 27.4006C202.85 27.1392 201.921 26.6989 201.319 26.0795C200.716 25.4545 200.418 24.6648 200.424 23.7102C200.418 22.9034 200.637 22.2045 201.08 21.6136C201.529 21.017 202.151 20.5568 202.946 20.233C203.748 19.9034 204.671 19.7386 205.716 19.7386C207.25 19.7386 208.458 20.0653 209.338 20.7188C210.225 21.3722 210.773 22.2557 210.983 23.3693Z" fill="black"/>
</svg>
