<svg width="236" height="52" viewBox="0 0 236 52" fill="none" xmlns="http://www.w3.org/2000/svg">
<circle cx="25.9704" cy="25.9704" r="25.9704" fill="#617AFF"/>
<path d="M26.7457 29.1663C26.7457 26.0874 28.8215 24.5992 30.2169 22.1873C31.8638 19.3409 33.1481 16.5938 33.1481 16.5938C33.1481 16.5938 34.4684 19.2504 36.2079 22.1873C37.8605 24.9776 39.499 26.1643 39.499 29.1663C39.499 30.9591 38.9464 32.2862 37.7506 33.5539C36.5547 34.8216 34.7364 35.5039 33.0452 35.5039C31.354 35.5039 29.4586 34.5137 28.2628 33.246C27.0669 31.9783 26.7457 30.5262 26.7457 29.1663Z" fill="white"/>
<path fill-rule="evenodd" clip-rule="evenodd" d="M23.3741 39.2418C25.6331 39.2418 28.0402 38.3184 29.5845 36.6773C31.1819 34.9798 31.8907 33.272 31.8907 30.8782C31.8907 28.8768 31.361 27.5093 30.5171 26.108C30.123 25.4536 29.6684 24.8046 29.1475 24.0611C29.0877 23.9758 29.0271 23.8892 28.9656 23.8013C28.3768 22.9594 27.7277 22.0176 27.0747 20.9123C25.742 18.6569 24.5715 16.5118 23.7347 14.9317C23.6753 14.8196 23.6175 14.7102 23.5615 14.6039C23.5037 14.7195 23.4439 14.8385 23.3823 14.9606C22.5761 16.5596 21.4526 18.7091 20.1875 20.9011C19.6201 21.884 18.9903 22.7613 18.3919 23.5698C18.2782 23.7234 18.1664 23.8736 18.0564 24.0213C17.5753 24.6675 17.1297 25.266 16.7232 25.8881C15.7534 27.3719 15.0916 28.8667 15.0916 30.8782C15.0916 32.7342 15.5217 34.5884 17.0467 36.209C18.6813 37.946 21.2401 39.2418 23.3741 39.2418ZM24.6728 11.1898L24.6739 11.192L24.6778 11.2C24.6802 11.2048 24.6835 11.2113 24.6876 11.2195L24.6944 11.2331C24.7092 11.2628 24.7314 11.3073 24.7608 11.3658C24.8196 11.4827 24.907 11.6556 25.0202 11.8774C25.2468 12.3211 25.5767 12.96 25.9887 13.7379C26.8132 15.2948 27.964 17.4033 29.2706 19.6148C29.8713 20.6314 30.4733 21.5066 31.0558 22.3394C31.117 22.427 31.1783 22.5144 31.2395 22.6018C31.7517 23.3326 32.2595 24.0571 32.7022 24.7921C33.7281 26.4958 34.4414 28.3137 34.4414 30.8782C34.4414 33.9378 33.4734 36.2666 31.442 38.4253C29.3576 40.6404 26.247 41.7925 23.3741 41.7925C20.3762 41.7925 17.1834 40.0762 15.1892 37.957C13.0854 35.7215 12.5409 33.1587 12.5409 30.8782C12.5409 28.2067 13.4538 26.2283 14.588 24.4927C15.0415 23.7988 15.5443 23.1238 16.0281 22.4743C16.1337 22.3325 16.2385 22.1918 16.3417 22.0524C16.9292 21.2585 17.487 20.4773 17.9784 19.626C19.2119 17.4888 20.312 15.3846 21.1048 13.8123C21.5008 13.0269 21.8192 12.376 22.0381 11.9224C22.1476 11.6956 22.2322 11.5182 22.2891 11.398C22.3176 11.3379 22.3392 11.2922 22.3535 11.2617C22.3578 11.2525 22.3615 11.2448 22.3644 11.2384L22.3742 11.2176L22.3744 11.2172C22.5815 10.7731 23.5149 8.98582 23.5149 8.98582C23.5149 8.98582 24.4551 10.7507 24.6728 11.1898Z" fill="white"/>
<path fill-rule="evenodd" clip-rule="evenodd" d="M22.5848 16.5175C21.8964 17.84 21.077 19.3601 20.1875 20.9011C19.6202 21.884 18.9903 22.7613 18.3919 23.5699C18.2783 23.7234 18.1664 23.8736 18.0564 24.0214C17.5754 24.6675 17.1298 25.266 16.7232 25.8881C15.7535 27.372 15.0916 28.8667 15.0916 30.8782C15.0916 32.7342 15.5217 34.5885 17.0467 36.2091C18.6813 37.946 21.2402 39.2419 23.3742 39.2419C25.6332 39.2419 28.0402 38.3185 29.5845 36.6774C31.1819 34.9799 31.8908 33.272 31.8908 30.8782C31.8908 28.8769 31.361 27.5093 30.5172 26.1081C30.1231 25.4536 29.6684 24.8047 29.1476 24.0611L28.9657 23.8014C28.3768 22.9595 27.7278 22.0177 27.0747 20.9124C26.143 19.3354 25.2905 17.8124 24.5759 16.4988C24.328 16.0431 24.0967 15.6126 23.8844 15.2138C23.8334 15.1179 23.7835 15.0239 23.7347 14.9318C23.6753 14.8196 23.6176 14.7103 23.5616 14.6039C23.5037 14.7195 23.444 14.8385 23.3824 14.9607C23.3467 15.0314 23.3104 15.1032 23.2735 15.176C23.0628 15.5922 22.8323 16.0421 22.5848 16.5175ZM23.597 18.3749C23.0269 19.4467 22.3901 20.6072 21.7124 21.7813C21.0927 22.855 20.4132 23.7985 19.8072 24.6173C19.6918 24.7732 19.5785 24.9254 19.4687 25.0728C18.9815 25.7272 18.569 26.2822 18.1971 26.8513C17.3411 28.1611 16.8523 29.322 16.8523 30.8782C16.8523 32.44 17.2028 33.8057 18.329 35.0024C19.7145 36.4748 21.8357 37.4812 23.3742 37.4812C25.2088 37.4812 27.1304 36.7161 28.3023 35.4707C29.6 34.0917 30.1301 32.8125 30.1301 30.8782C30.1301 29.2654 29.7269 28.2087 29.0089 27.0164C28.652 26.4238 28.2344 25.8263 27.7055 25.0713L27.5229 24.8105C26.9296 23.9623 26.2481 22.9746 25.5588 21.808C24.8509 20.6099 24.1887 19.4435 23.597 18.3749ZM24.928 10.4074C24.5854 9.74658 23.515 8.98587 23.515 8.98587L25.0757 9.80094L24.928 10.0844C24.8378 10.2579 24.7155 10.4934 24.587 10.7425C24.563 10.7889 24.9518 10.3612 24.928 10.4074ZM22.5332 10.8929C23.2735 8.45972 22.4815 10.7949 22.4556 10.746C22.3253 10.4993 22.2015 10.2661 22.1103 10.0945L21.9616 9.81484L21.9611 9.81392L23.515 8.98587C23.515 8.98587 22.8699 10.2211 22.5332 10.8929ZM23.515 8.98587L26.5884 11.0768C26.8115 11.5137 27.1373 12.1447 27.5447 12.9139C28.3607 14.4547 29.4978 16.538 30.7866 18.7192C31.351 19.6745 31.9205 20.5037 32.4986 21.3303L32.6985 21.6156C33.1991 22.3299 33.7363 23.0963 34.2105 23.8838C35.3621 25.7961 36.2021 27.9248 36.2021 30.8782C36.2021 34.3975 35.0553 37.1549 32.7243 39.632C30.2668 42.2435 26.6703 43.5532 23.3742 43.5532C19.7792 43.5532 16.1489 41.5461 13.907 39.1637C11.4033 36.5031 10.7803 33.4509 10.7803 30.8782C10.7803 27.7511 11.8665 25.4387 13.1142 23.5295C13.5973 22.7903 14.1272 22.0789 14.6018 21.4417L14.6161 21.4226C14.722 21.2803 14.8252 21.1418 14.9265 21.005C15.5067 20.2211 16.0147 19.5062 16.4535 18.7459C17.6652 16.6465 18.7492 14.5736 19.5326 13.0197C19.9235 12.2445 20.2373 11.6029 20.4525 11.157C20.5601 10.9342 20.6429 10.7605 20.6982 10.6439C20.7258 10.5856 20.7466 10.5415 20.7601 10.5127L20.7773 10.4762L20.7787 10.473M23.515 8.98587C23.7415 9.42951 25.5767 12.9601 25.9887 13.738C26.8133 15.2948 27.964 17.4034 29.2707 19.6149C29.8713 20.6314 30.4733 21.5067 31.0558 22.3394L31.2396 22.6018C31.7518 23.3326 32.2595 24.0571 32.7022 24.7922C33.7282 26.4958 34.4414 28.3137 34.4414 30.8782C34.4414 33.9378 33.4735 36.2666 31.4421 38.4253C29.3576 40.6404 26.247 41.7925 23.3742 41.7925C20.3763 41.7925 17.1835 40.0762 15.1892 37.9571C13.0855 35.7215 12.541 33.1587 12.541 30.8782C12.541 28.2068 13.4538 26.2284 14.5881 24.4927C15.0415 23.7989 15.5444 23.1238 16.0281 22.4744L16.0289 22.4733C16.1343 22.3318 16.2388 22.1915 16.3417 22.0525C16.9293 21.2586 17.4871 20.4773 17.9784 19.6261C19.2119 17.4889 20.3121 15.3847 21.1048 13.8123C21.5008 13.0269 21.8192 12.3761 22.0382 11.9224C22.1476 11.6956 22.2322 11.5182 22.2892 11.398C22.3177 11.338 22.3392 11.2922 22.3535 11.2618M23.515 8.98587L21.9541 8.17118C22.2564 7.59223 22.8547 7.22784 23.5078 7.22518C24.1609 7.22251 24.7619 7.58165 25.069 8.15811L23.515 8.98587Z" fill="#708FFF"/>
<path d="M235.132 21.7829C235.132 22.5585 234.931 23.2719 234.53 23.9229C234.142 24.5738 233.56 25.0932 232.785 25.4811C232.023 25.8689 231.095 26.0628 230.001 26.0628C228.352 26.0628 226.995 25.6611 225.928 24.8578C224.862 24.0544 224.28 22.9325 224.183 21.492H227.964C228.02 22.0461 228.214 22.4824 228.546 22.8009C228.892 23.1195 229.329 23.2788 229.855 23.2788C230.312 23.2788 230.672 23.1541 230.935 22.9048C231.199 22.6555 231.33 22.3231 231.33 21.9076C231.33 21.5336 231.206 21.2219 230.956 20.9726C230.721 20.7233 230.423 20.5225 230.063 20.3701C229.703 20.2039 229.204 20.01 228.567 19.7884C227.639 19.4698 226.877 19.1651 226.282 18.8742C225.7 18.5695 225.194 18.1263 224.765 17.5445C224.349 16.9489 224.142 16.1802 224.142 15.2384C224.142 14.3658 224.363 13.6109 224.806 12.9737C225.25 12.3366 225.859 11.8518 226.635 11.5194C227.424 11.1731 228.325 11 229.336 11C230.97 11 232.265 11.3878 233.221 12.1635C234.19 12.9391 234.738 14.0056 234.862 15.363H231.019C230.949 14.8782 230.769 14.4973 230.478 14.2203C230.201 13.9295 229.82 13.784 229.336 13.784C228.92 13.784 228.581 13.8948 228.318 14.1164C228.068 14.3381 227.944 14.6636 227.944 15.0929C227.944 15.4392 228.054 15.737 228.276 15.9863C228.512 16.2218 228.802 16.4157 229.149 16.568C229.495 16.7204 229.994 16.9143 230.645 17.1498C231.586 17.4684 232.355 17.7869 232.951 18.1055C233.546 18.4102 234.059 18.8604 234.488 19.4559C234.918 20.0515 235.132 20.8272 235.132 21.7829Z" fill="black"/>
<path d="M218.911 25.9174L215.732 20.3701H214.922V25.9174H211.369V11.2285H217.436C218.599 11.2285 219.583 11.4294 220.386 11.831C221.189 12.2327 221.792 12.7867 222.194 13.4931C222.595 14.1857 222.796 14.9821 222.796 15.8824C222.796 16.9489 222.498 17.8562 221.903 18.6041C221.321 19.352 220.469 19.8645 219.347 20.1415L222.838 25.9174H218.911ZM214.922 17.9393H217.124C217.831 17.9393 218.35 17.7869 218.682 17.4822C219.015 17.1636 219.181 16.6996 219.181 16.0902C219.181 15.5084 219.008 15.0514 218.662 14.7189C218.329 14.3865 217.817 14.2203 217.124 14.2203H214.922V17.9393Z" fill="black"/>
<path d="M205.293 23.2373H199.787L198.873 25.9175H195.133L200.514 11.3325H204.607L209.988 25.9175H206.207L205.293 23.2373ZM204.379 20.5364L202.55 15.1346L200.701 20.5364H204.379Z" fill="black"/>
<path d="M193.739 11.3325V25.9175H190.187V16.7967L187.029 25.9175H183.954L180.775 16.7759V25.9175H177.222V11.3325H181.564L185.533 21.4921L189.418 11.3325H193.739Z" fill="black"/>
<path d="M170.61 25.9174H167.057L161.115 16.9004V25.9174H157.562V11.2285H161.115L167.057 20.3285V11.2285H170.61V25.9174Z" fill="black"/>
<path d="M148.149 11C149.534 11 150.788 11.3255 151.91 11.9765C153.045 12.6136 153.939 13.507 154.59 14.6566C155.241 15.7924 155.566 17.0805 155.566 18.521C155.566 19.9615 155.234 21.2566 154.569 22.4062C153.918 23.5558 153.025 24.4561 151.889 25.1071C150.767 25.7442 149.52 26.0628 148.149 26.0628C146.778 26.0628 145.524 25.7442 144.389 25.1071C143.267 24.4561 142.373 23.5558 141.708 22.4062C141.057 21.2566 140.732 19.9615 140.732 18.521C140.732 17.0805 141.057 15.7924 141.708 14.6566C142.373 13.507 143.267 12.6136 144.389 11.9765C145.524 11.3255 146.778 11 148.149 11ZM148.149 14.3034C146.986 14.3034 146.058 14.6843 145.365 15.4461C144.686 16.1941 144.347 17.219 144.347 18.521C144.347 19.8091 144.686 20.8341 145.365 21.5959C146.058 22.3577 146.986 22.7386 148.149 22.7386C149.299 22.7386 150.22 22.3577 150.912 21.5959C151.605 20.8341 151.951 19.8091 151.951 18.521C151.951 17.2329 151.605 16.2079 150.912 15.4461C150.234 14.6843 149.313 14.3034 148.149 14.3034Z" fill="black"/>
<path d="M131.342 25.9174L128.163 20.3701H127.353V25.9174H123.8V11.2285H129.867C131.03 11.2285 132.014 11.4294 132.817 11.831C133.621 12.2327 134.223 12.7867 134.625 13.4931C135.026 14.1857 135.227 14.9821 135.227 15.8824C135.227 16.9489 134.929 17.8562 134.334 18.6041C133.752 19.352 132.9 19.8645 131.778 20.1415L135.269 25.9174H131.342ZM127.353 17.9393H129.555C130.262 17.9393 130.781 17.7869 131.114 17.4822C131.446 17.1636 131.612 16.6996 131.612 16.0902C131.612 15.5084 131.439 15.0514 131.093 14.7189C130.76 14.3865 130.248 14.2203 129.555 14.2203H127.353V17.9393Z" fill="black"/>
<path d="M116.194 14.0541V17.129H121.16V19.8091H116.194V23.071H121.783V25.9174H112.642V11.2285H121.783V14.0541H116.194Z" fill="black"/>
<path d="M111.144 11.2285V14.0541H107.155V25.9174H103.581V14.0541H99.6338V11.2285H111.144Z" fill="black"/>
<path d="M94.5131 23.2373H89.0074L88.0932 25.9175H84.3535L89.7346 11.3325H93.8275L99.2086 25.9175H95.4273L94.5131 23.2373ZM93.599 20.5364L91.7707 15.1346L89.9216 20.5364H93.599Z" fill="black"/>
<path d="M83.5477 11.2285L80.0366 25.9174H75.632L73.2843 16.0902L70.9158 25.9174H66.5112L63 11.2285H66.8644L68.755 21.866L71.3313 11.2285H75.2165L77.7927 21.866L79.7041 11.2285H83.5477Z" fill="black"/>
<path d="M187.639 41.4402C187.325 40.8763 187.167 40.0868 187.167 39.0717C187.167 38.0626 187.325 37.279 187.639 36.721C187.96 36.163 188.524 35.884 189.331 35.884C190.133 35.884 190.694 36.163 191.014 36.721C191.335 37.279 191.495 38.0626 191.495 39.0717C191.495 40.0868 191.335 40.8763 191.014 41.4402C190.694 41.9982 190.133 42.2772 189.331 42.2772C188.524 42.2772 187.96 41.9982 187.639 41.4402ZM190.747 40.4697C190.83 40.0897 190.872 39.6238 190.872 39.0717C190.872 38.5256 190.83 38.0655 190.747 37.6916C190.67 37.3176 190.518 37.0208 190.293 36.8012C190.067 36.5815 189.747 36.4717 189.331 36.4717C188.91 36.4717 188.586 36.5815 188.361 36.8012C188.135 37.0208 187.981 37.3176 187.898 37.6916C187.82 38.0655 187.782 38.5256 187.782 39.0717C187.782 39.6238 187.82 40.0897 187.898 40.4697C187.981 40.8436 188.135 41.1404 188.361 41.3601C188.586 41.5797 188.91 41.6895 189.331 41.6895C189.747 41.6895 190.067 41.5797 190.293 41.3601C190.518 41.1404 190.67 40.8436 190.747 40.4697Z" fill="black"/>
<path d="M184.078 35.8306C184.476 35.8306 184.814 35.9018 185.093 36.0443C185.372 36.1808 185.583 36.3707 185.725 36.6141C185.874 36.8575 185.948 37.1335 185.948 37.4422C185.948 37.834 185.832 38.1664 185.601 38.4395C185.369 38.7125 185.016 38.8728 184.541 38.9203V38.9737C185.016 39.0924 185.387 39.2794 185.654 39.5347C185.927 39.784 186.064 40.1313 186.064 40.5765C186.064 41.087 185.895 41.5025 185.556 41.823C185.224 42.1436 184.737 42.3039 184.096 42.3039C183.461 42.3039 182.947 42.1406 182.555 41.8141C182.164 41.4817 181.929 41.0009 181.852 40.3717H182.466C182.532 40.7931 182.701 41.1315 182.974 41.3867C183.253 41.6361 183.621 41.7607 184.078 41.7607C184.523 41.7607 184.862 41.6479 185.093 41.4224C185.331 41.1968 185.449 40.9029 185.449 40.5408C185.449 40.1134 185.28 39.7899 184.942 39.5703C184.609 39.3447 184.137 39.2319 183.526 39.2319H183.33V38.7066H183.526C184.731 38.7066 185.334 38.3059 185.334 37.5045C185.334 37.1543 185.221 36.8753 184.995 36.6676C184.77 36.4598 184.458 36.3559 184.06 36.3559C183.668 36.3559 183.336 36.4657 183.063 36.6854C182.79 36.905 182.627 37.2344 182.573 37.6737H181.959C182.006 37.092 182.214 36.6408 182.582 36.3203C182.95 35.9938 183.449 35.8306 184.078 35.8306Z" fill="black"/>
<path d="M175.977 36.4716V38.8401H178.426V39.3299H175.977V41.7251H178.693V42.2415H175.345V35.9641H178.693V36.4716H175.977Z" fill="black"/>
<path d="M174.509 35.9641V36.4716H172.72V42.2415H172.096V36.4716H170.315V35.9641H174.509Z" fill="black"/>
<path d="M169.128 42.2415L167.41 39.6237H166.395V42.2415H165.763V35.9641H167.686C168.392 35.9641 168.918 36.1303 169.262 36.4627C169.612 36.7952 169.787 37.2433 169.787 37.8073C169.787 38.3296 169.639 38.7452 169.342 39.0538C169.051 39.3625 168.627 39.5465 168.069 39.6059L169.841 42.2415H169.128ZM166.395 39.1518H167.641C168.651 39.1518 169.155 38.7155 169.155 37.8429C169.155 36.9525 168.651 36.5073 167.641 36.5073H166.395V39.1518Z" fill="black"/>
<path d="M163.656 40.7101H160.798L160.228 42.2416H159.561L161.876 36.1067H162.579L164.894 42.2416H164.217L163.656 40.7101ZM163.469 40.2115L162.232 36.8279L160.976 40.2115H163.469Z" fill="black"/>
<path d="M158.67 36.0977V42.2415H158.047V37.0949L155.919 42.2415H155.358L153.221 37.1127V42.2415H152.589V36.0977H153.328L155.643 41.4668L157.94 36.0977H158.67Z" fill="black"/>
<path d="M148.925 42.2416H148.293L144.856 36.9971V42.2416H144.224V35.9731H144.856L148.293 41.2266V35.9731H148.925V42.2416Z" fill="black"/>
<path d="M140.03 35.8928C140.612 35.8928 141.134 36.0294 141.597 36.3024C142.06 36.5755 142.422 36.9554 142.684 37.4421C142.951 37.9289 143.084 38.481 143.084 39.0983C143.084 39.7157 142.951 40.2707 142.684 40.7634C142.422 41.2501 142.06 41.63 141.597 41.9031C141.134 42.1762 140.612 42.3127 140.03 42.3127C139.448 42.3127 138.926 42.1762 138.463 41.9031C138 41.63 137.635 41.2501 137.368 40.7634C137.107 40.2707 136.976 39.7157 136.976 39.0983C136.976 38.481 137.107 37.9289 137.368 37.4421C137.635 36.9554 138 36.5755 138.463 36.3024C138.926 36.0294 139.448 35.8928 140.03 35.8928ZM140.03 36.4716C139.573 36.4716 139.161 36.5784 138.793 36.7921C138.43 37.0058 138.143 37.3115 137.929 37.7093C137.721 38.107 137.617 38.57 137.617 39.0983C137.617 39.6266 137.721 40.0896 137.929 40.4873C138.143 40.8851 138.43 41.1908 138.793 41.4045C139.161 41.6182 139.573 41.725 140.03 41.725C140.487 41.725 140.897 41.6182 141.259 41.4045C141.627 41.1908 141.915 40.8851 142.123 40.4873C142.336 40.0896 142.443 39.6266 142.443 39.0983C142.443 38.57 142.336 38.107 142.123 37.7093C141.915 37.3115 141.627 37.0058 141.259 36.7921C140.897 36.5784 140.487 36.4716 140.03 36.4716Z" fill="black"/>
<path d="M133.164 42.2415L131.446 39.6237H130.431V42.2415H129.798V35.9641H131.722C132.428 35.9641 132.953 36.1303 133.298 36.4627C133.648 36.7952 133.823 37.2433 133.823 37.8073C133.823 38.3296 133.675 38.7452 133.378 39.0538C133.087 39.3625 132.662 39.5465 132.105 39.6059L133.876 42.2415H133.164ZM130.431 39.1518H131.677C132.686 39.1518 133.191 38.7155 133.191 37.8429C133.191 36.9525 132.686 36.5073 131.677 36.5073H130.431V39.1518Z" fill="black"/>
<path d="M125.996 36.4716V38.8401H128.445V39.3299H125.996V41.7251H128.712V42.2415H125.364V35.9641H128.712V36.4716H125.996Z" fill="black"/>
<path d="M124.528 35.9641V36.4716H122.739V42.2415H122.115V36.4716H120.334V35.9641H124.528Z" fill="black"/>
<path d="M118.744 40.7101H115.886L115.316 42.2416H114.648L116.964 36.1067H117.667L119.982 42.2416H119.305L118.744 40.7101ZM118.557 40.2115L117.32 36.8279L116.064 40.2115H118.557Z" fill="black"/>
<path d="M114.14 35.9641L112.519 42.2415H111.771L110.204 36.8634L108.628 42.2415H107.88L106.26 35.9641H106.954L108.263 41.4669L109.848 35.9641H110.552L112.136 41.4758L113.454 35.9641H114.14Z" fill="black"/>
<path d="M103.184 40.6476C103.184 40.9326 103.116 41.2026 102.98 41.4579C102.849 41.7072 102.644 41.912 102.365 42.0723C102.086 42.2266 101.739 42.3038 101.323 42.3038C100.92 42.3038 100.561 42.2296 100.246 42.0812C99.9315 41.9328 99.6792 41.731 99.4892 41.4757C99.3052 41.2145 99.1984 40.9237 99.1687 40.6031H99.8276C99.8513 40.7871 99.9196 40.9711 100.032 41.1552C100.145 41.3392 100.308 41.4935 100.522 41.6182C100.736 41.7369 100.994 41.7963 101.297 41.7963C101.694 41.7963 101.997 41.6894 102.205 41.4757C102.419 41.262 102.526 40.9919 102.526 40.6654C102.526 40.3864 102.454 40.1609 102.312 39.9887C102.175 39.8106 102.003 39.6741 101.795 39.5791C101.594 39.4842 101.315 39.3803 100.958 39.2675C100.567 39.1428 100.249 39.0241 100.006 38.9113C99.7682 38.7926 99.5664 38.6205 99.4002 38.3949C99.234 38.1693 99.1509 37.8695 99.1509 37.4956C99.1509 37.0207 99.3171 36.6348 99.6495 36.338C99.9819 36.0412 100.439 35.8928 101.021 35.8928C101.614 35.8928 102.083 36.0383 102.428 36.3291C102.778 36.62 102.986 36.9821 103.051 37.4154H102.383C102.33 37.1483 102.187 36.9109 101.956 36.7031C101.73 36.4953 101.418 36.3915 101.021 36.3915C100.653 36.3915 100.359 36.4864 100.139 36.6764C99.9196 36.8663 99.8098 37.1305 99.8098 37.4689C99.8098 37.736 99.878 37.9526 100.015 38.1189C100.151 38.2851 100.317 38.4127 100.513 38.5017C100.715 38.5908 100.988 38.6917 101.332 38.8045C101.73 38.9291 102.051 39.0508 102.294 39.1695C102.543 39.2883 102.754 39.4663 102.926 39.7038C103.098 39.9412 103.184 40.2558 103.184 40.6476Z" fill="black"/>
<path d="M95.5531 36.4716V38.8401H98.0017V39.3299H95.5531V41.7251H98.2688V42.2415H94.9209V35.9641H98.2688V36.4716H95.5531Z" fill="black"/>
<path d="M91.0363 35.5222C91.7486 35.5222 92.3511 35.7003 92.8438 36.0565C93.3365 36.4126 93.6749 36.8964 93.8589 37.5078H93.2089C93.0486 37.0864 92.7756 36.745 92.3897 36.4839C92.0098 36.2227 91.5587 36.0921 91.0363 36.0921C90.5852 36.0921 90.1756 36.1989 89.8075 36.4126C89.4454 36.6263 89.1605 36.932 88.9527 37.3298C88.745 37.7275 88.6411 38.1905 88.6411 38.7188C88.6411 39.259 88.745 39.7279 88.9527 40.1256C89.1664 40.5234 89.4573 40.8291 89.8253 41.0428C90.1993 41.2565 90.6237 41.3633 91.0986 41.3633C91.5201 41.3633 91.9059 41.2713 92.2562 41.0873C92.6064 40.8973 92.8884 40.6243 93.1021 40.2681C93.3217 39.9119 93.4493 39.4935 93.4849 39.0126H90.876V38.5407H94.0281V39.0928C93.9865 39.627 93.8352 40.1078 93.574 40.5352C93.3187 40.9626 92.9715 41.301 92.5322 41.5503C92.0989 41.7937 91.6032 41.9154 91.0452 41.9154C90.4516 41.9154 89.9233 41.7818 89.4603 41.5147C88.9973 41.2416 88.6381 40.8617 88.3829 40.375C88.1276 39.8882 88 39.3361 88 38.7188C88 38.1014 88.1276 37.5494 88.3829 37.0626C88.6381 36.5759 88.9943 36.1989 89.4514 35.9318C89.9144 35.6587 90.4427 35.5222 91.0363 35.5222Z" fill="black"/>
<path d="M85.8498 40.7101H82.9916L82.4217 42.2416H81.7539L84.069 36.1067H84.7724L87.0875 42.2416H86.4108L85.8498 40.7101ZM85.6628 40.2115L84.4251 36.8279L83.1697 40.2115H85.6628Z" fill="black"/>
<path d="M80.8747 42.2416H80.2425L76.8055 36.9971V42.2416H76.1733V35.9731H76.8055L80.2425 41.2266V35.9731H80.8747V42.2416Z" fill="black"/>
<path d="M74.0671 40.7101H71.2089L70.639 42.2416H69.9712L72.2863 36.1067H72.9897L75.3048 42.2416H74.628L74.0671 40.7101ZM73.8801 40.2115L72.6424 36.8279L71.3869 40.2115H73.8801Z" fill="black"/>
<path d="M69.0815 36.0977V42.2415H68.4582V37.0949L66.3301 42.2415H65.7692L63.6322 37.1127V42.2415H63V36.0977H63.739L66.0541 41.4668L68.3514 36.0977H69.0815Z" fill="black"/>
</svg>
