<svg width="228" height="48" viewBox="0 0 228 48" fill="none" xmlns="http://www.w3.org/2000/svg">
<circle cx="24" cy="24" r="24" fill="#617AFF"/>
<path d="M24.7162 26.9535C24.7162 24.1081 26.6344 22.7328 27.924 20.504C29.446 17.8735 30.6328 15.3349 30.6328 15.3349C30.6328 15.3349 31.8529 17.7898 33.4605 20.504C34.9877 23.0825 36.5019 24.1792 36.5019 26.9535C36.5019 28.6103 35.9912 29.8366 34.8861 31.0082C33.781 32.1797 32.1006 32.8102 30.5377 32.8102C28.9749 32.8102 27.2232 31.8951 26.1181 30.7236C25.013 29.5521 24.7162 28.2102 24.7162 26.9535Z" fill="white"/>
<path fill-rule="evenodd" clip-rule="evenodd" d="M21.6006 36.2646C23.6882 36.2646 25.9126 35.4113 27.3398 33.8947C28.816 32.326 29.471 30.7477 29.471 28.5355C29.471 26.686 28.9815 25.4222 28.2017 24.1273C27.8374 23.5225 27.4173 22.9228 26.9359 22.2356C26.8807 22.1568 26.8247 22.0769 26.7679 21.9956C26.2237 21.2176 25.6239 20.3472 25.0203 19.3258C23.7888 17.2415 22.7071 15.2592 21.9338 13.799C21.8789 13.6953 21.8255 13.5943 21.7738 13.496C21.7203 13.6028 21.6651 13.7128 21.6082 13.8256C20.8631 15.3033 19.8249 17.2897 18.6557 19.3154C18.1314 20.2237 17.5493 21.0345 16.9963 21.7817C16.8913 21.9236 16.7879 22.0624 16.6863 22.1989C16.2417 22.796 15.8299 23.3492 15.4542 23.924C14.5581 25.2953 13.9464 26.6766 13.9464 28.5355C13.9464 30.2507 14.3439 31.9643 15.7532 33.4619C17.2638 35.0671 19.6285 36.2646 21.6006 36.2646ZM22.8007 10.3409L22.8017 10.3429L22.8054 10.3503C22.8076 10.3548 22.8106 10.3608 22.8144 10.3684L22.8207 10.381C22.8343 10.4083 22.8549 10.4495 22.8821 10.5035C22.9364 10.6116 23.0172 10.7714 23.1218 10.9764C23.3311 11.3864 23.636 11.9768 24.0168 12.6957C24.7788 14.1344 25.8422 16.083 27.0497 18.1267C27.6048 19.0662 28.1611 19.875 28.6994 20.6446C28.756 20.7255 28.8127 20.8063 28.8692 20.8871C29.3426 21.5625 29.8118 22.232 30.2209 22.9112C31.169 24.4856 31.8282 26.1656 31.8282 28.5355C31.8282 31.363 30.9337 33.5152 29.0564 35.5101C27.1301 37.5571 24.2555 38.6218 21.6006 38.6218C18.8301 38.6218 15.8796 37.0357 14.0366 35.0773C12.0925 33.0114 11.5893 30.643 11.5893 28.5355C11.5893 26.0668 12.4329 24.2385 13.4811 22.6345C13.9001 21.9933 14.3648 21.3695 14.8118 20.7693C14.9095 20.6382 15.0063 20.5082 15.1017 20.3794C15.6447 19.6457 16.1601 18.9238 16.6142 18.1371C17.7541 16.162 18.7708 14.2175 19.5034 12.7644C19.8694 12.0386 20.1636 11.4371 20.3659 11.0179C20.4671 10.8083 20.5453 10.6444 20.5979 10.5333C20.6242 10.4778 20.6442 10.4355 20.6574 10.4074C20.6614 10.3989 20.6647 10.3917 20.6675 10.3858L20.6765 10.3666L20.6767 10.3663C20.8681 9.95582 21.7307 8.30415 21.7307 8.30415C21.7307 8.30415 22.5995 9.93513 22.8007 10.3409Z" fill="white"/>
<path fill-rule="evenodd" clip-rule="evenodd" d="M20.8712 15.2644C20.235 16.4865 19.4777 17.8912 18.6558 19.3154C18.1315 20.2237 17.5494 21.0344 16.9964 21.7816C16.8914 21.9236 16.788 22.0624 16.6864 22.1989C16.2418 22.796 15.83 23.3491 15.4543 23.924C14.5581 25.2953 13.9465 26.6766 13.9465 28.5355C13.9465 30.2507 14.3439 31.9643 15.7533 33.4619C17.2638 35.0671 19.6286 36.2646 21.6006 36.2646C23.6883 36.2646 25.9127 35.4113 27.3399 33.8947C28.816 32.326 29.4711 30.7477 29.4711 28.5355C29.4711 26.686 28.9816 25.4222 28.2017 24.1273C27.8375 23.5225 27.4174 22.9228 26.936 22.2356L26.7679 21.9956C26.2238 21.2176 25.624 20.3472 25.0204 19.3258C24.1594 17.8685 23.3716 16.461 22.7112 15.247C22.4821 14.8259 22.2684 14.4281 22.0722 14.0595C22.025 13.971 21.9789 13.8841 21.9338 13.7989C21.8789 13.6953 21.8256 13.5943 21.7738 13.496C21.7204 13.6028 21.6652 13.7127 21.6082 13.8256C21.5753 13.891 21.5418 13.9573 21.5077 14.0247C21.3129 14.4093 21.0999 14.825 20.8712 15.2644ZM21.8066 16.9808C21.2797 17.9713 20.6912 19.0437 20.065 20.1288C19.4923 21.121 18.8643 21.993 18.3043 22.7496C18.1977 22.8937 18.0929 23.0344 17.9915 23.1706C17.5413 23.7753 17.1601 24.2882 16.8164 24.8141C16.0253 26.0246 15.5736 27.0974 15.5736 28.5355C15.5736 29.9788 15.8975 31.2409 16.9382 32.3468C18.2187 33.7075 20.1789 34.6375 21.6006 34.6375C23.2961 34.6375 25.0719 33.9305 26.1549 32.7796C27.3542 31.5052 27.844 30.323 27.844 28.5355C27.844 27.0451 27.4714 26.0685 26.8079 24.9667C26.478 24.419 26.0921 23.8669 25.6034 23.1692L25.4346 22.9282C24.8863 22.1443 24.2565 21.2315 23.6196 20.1535C22.9654 19.0463 22.3534 17.9684 21.8066 16.9808ZM23.0366 9.61785C22.72 9.00714 21.7308 8.30414 21.7308 8.30414L23.1731 9.05738L23.0366 9.31934C22.9532 9.47963 22.8402 9.69734 22.7215 9.9275C22.6993 9.97039 23.0586 9.57514 23.0366 9.61785ZM20.8235 10.0665C21.5077 7.81791 20.7757 9.97592 20.7518 9.93076C20.6313 9.70279 20.517 9.48727 20.4327 9.32865L20.2953 9.07022L20.2948 9.06937L21.7308 8.30414C21.7308 8.30414 21.1346 9.44562 20.8235 10.0665ZM21.7308 8.30414L24.571 10.2365C24.7772 10.6401 25.0783 11.2233 25.4548 11.9341C26.2089 13.358 27.2597 15.2833 28.4507 17.299C28.9723 18.1818 29.4986 18.9482 30.0328 19.712L30.2175 19.9757C30.6802 20.6358 31.1766 21.3441 31.6148 22.0718C32.6791 23.839 33.4554 25.8062 33.4554 28.5355C33.4554 31.7878 32.3955 34.336 30.2414 36.6251C27.9703 39.0385 24.6467 40.2489 21.6006 40.2489C18.2784 40.2489 14.9236 38.394 12.8517 36.1924C10.538 33.7337 9.96224 30.913 9.96224 28.5355C9.96224 25.6456 10.9661 23.5087 12.1191 21.7444C12.5656 21.0612 13.0552 20.4038 13.4939 19.815L13.507 19.7973C13.605 19.6658 13.7003 19.5379 13.7939 19.4114C14.33 18.6869 14.7995 18.0263 15.205 17.3237C16.3248 15.3836 17.3266 13.4679 18.0506 12.0319C18.4117 11.3156 18.7018 10.7226 18.9007 10.3106C19.0001 10.1046 19.0766 9.94416 19.1277 9.83637C19.1532 9.78247 19.1724 9.74177 19.1849 9.71517L19.2008 9.68137L19.2021 9.67844M21.7308 8.30414C21.9401 8.71412 23.6361 11.9768 24.0169 12.6957C24.7788 14.1344 25.8423 16.083 27.0498 18.1267C27.6049 19.0661 28.1612 19.875 28.6995 20.6446L28.8693 20.8871C29.3427 21.5624 29.8119 22.232 30.221 22.9112C31.1691 24.4856 31.8283 26.1656 31.8283 28.5355C31.8283 31.363 30.9337 33.5151 29.0564 35.5101C27.1302 37.5571 24.2556 38.6218 21.6006 38.6218C18.8302 38.6218 15.8796 37.0357 14.0367 35.0773C12.0926 33.0113 11.5894 30.643 11.5894 28.5355C11.5894 26.0668 12.4329 24.2385 13.4812 22.6345C13.9002 21.9933 14.3649 21.3694 14.8119 20.7693L14.8127 20.7683C14.9101 20.6375 15.0067 20.5078 15.1017 20.3794C15.6447 19.6457 16.1602 18.9237 16.6143 18.1371C17.7542 16.162 18.7709 14.2175 19.5035 12.7644C19.8694 12.0386 20.1637 11.4371 20.366 11.0179C20.4672 10.8083 20.5454 10.6443 20.598 10.5333C20.6243 10.4778 20.6442 10.4355 20.6575 10.4074M21.7308 8.30414L20.2883 7.55126C20.5677 7.01624 21.1206 6.67949 21.7241 6.67703C22.3277 6.67457 22.8831 7.00646 23.1669 7.53918L21.7308 8.30414Z" fill="#617AFF"/>
<path d="M83.48 15.032L79.424 32H74.336L71.624 20.648L68.888 32H63.8L59.744 15.032H64.208L66.392 27.32L69.368 15.032H73.856L76.832 27.32L79.04 15.032H83.48ZM90.2428 18.44C91.2668 18.44 92.1468 18.672 92.8828 19.136C93.6188 19.6 94.1628 20.232 94.5148 21.032V18.608H98.5948V32H94.5148V29.576C94.1628 30.376 93.6188 31.008 92.8828 31.472C92.1468 31.936 91.2668 32.168 90.2428 32.168C89.1388 32.168 88.1468 31.896 87.2668 31.352C86.4028 30.792 85.7148 29.992 85.2028 28.952C84.7068 27.912 84.4588 26.696 84.4588 25.304C84.4588 23.896 84.7068 22.68 85.2028 21.656C85.7148 20.616 86.4028 19.824 87.2668 19.28C88.1468 18.72 89.1388 18.44 90.2428 18.44ZM91.5628 22.04C90.6828 22.04 89.9708 22.328 89.4268 22.904C88.8988 23.48 88.6348 24.28 88.6348 25.304C88.6348 26.328 88.8988 27.128 89.4268 27.704C89.9708 28.28 90.6828 28.568 91.5628 28.568C92.4268 28.568 93.1308 28.272 93.6748 27.68C94.2348 27.088 94.5148 26.296 94.5148 25.304C94.5148 24.296 94.2348 23.504 93.6748 22.928C93.1308 22.336 92.4268 22.04 91.5628 22.04ZM108.524 28.472V32H106.676C105.108 32 103.884 31.616 103.004 30.848C102.14 30.064 101.708 28.776 101.708 26.984V22.064H99.9084V18.608H101.708V15.32H105.812V18.608H108.5V22.064H105.812V27.056C105.812 27.584 105.916 27.952 106.124 28.16C106.348 28.368 106.716 28.472 107.228 28.472H108.524ZM123.071 24.944C123.071 25.28 123.031 25.648 122.951 26.048H113.663C113.711 27.056 113.967 27.784 114.431 28.232C114.895 28.664 115.487 28.88 116.207 28.88C116.815 28.88 117.319 28.728 117.719 28.424C118.119 28.12 118.383 27.728 118.511 27.248H122.855C122.679 28.192 122.295 29.04 121.703 29.792C121.111 30.528 120.359 31.112 119.447 31.544C118.535 31.96 117.519 32.168 116.399 32.168C115.087 32.168 113.919 31.896 112.895 31.352C111.887 30.792 111.095 29.992 110.519 28.952C109.943 27.912 109.655 26.696 109.655 25.304C109.655 23.896 109.935 22.68 110.495 21.656C111.071 20.616 111.871 19.824 112.895 19.28C113.919 18.72 115.087 18.44 116.399 18.44C117.727 18.44 118.895 18.712 119.903 19.256C120.911 19.8 121.687 20.568 122.231 21.56C122.791 22.536 123.071 23.664 123.071 24.944ZM118.919 24.32C118.935 23.44 118.695 22.784 118.199 22.352C117.719 21.904 117.119 21.68 116.399 21.68C115.647 21.68 115.023 21.904 114.527 22.352C114.031 22.8 113.751 23.456 113.687 24.32H118.919ZM128.834 21.128C129.346 20.312 130.002 19.664 130.802 19.184C131.618 18.704 132.498 18.464 133.442 18.464V22.856H132.266C131.178 22.856 130.33 23.088 129.722 23.552C129.13 24.016 128.834 24.8 128.834 25.904V32H124.73V18.608H128.834V21.128ZM140.944 18.44C142.272 18.44 143.456 18.72 144.496 19.28C145.552 19.824 146.376 20.616 146.968 21.656C147.576 22.696 147.88 23.912 147.88 25.304C147.88 26.696 147.576 27.912 146.968 28.952C146.376 29.992 145.552 30.792 144.496 31.352C143.456 31.896 142.272 32.168 140.944 32.168C139.616 32.168 138.424 31.896 137.368 31.352C136.312 30.792 135.48 29.992 134.872 28.952C134.28 27.912 133.984 26.696 133.984 25.304C133.984 23.912 134.28 22.696 134.872 21.656C135.48 20.616 136.312 19.824 137.368 19.28C138.424 18.72 139.616 18.44 140.944 18.44ZM140.944 21.992C140.16 21.992 139.496 22.28 138.952 22.856C138.424 23.416 138.16 24.232 138.16 25.304C138.16 26.376 138.424 27.192 138.952 27.752C139.496 28.312 140.16 28.592 140.944 28.592C141.728 28.592 142.384 28.312 142.912 27.752C143.44 27.192 143.704 26.376 143.704 25.304C143.704 24.232 143.44 23.416 142.912 22.856C142.384 22.28 141.728 21.992 140.944 21.992ZM158.024 18.464C159.56 18.464 160.776 18.976 161.672 20C162.584 21.024 163.04 22.432 163.04 24.224V32H158.936V24.704C158.936 23.808 158.696 23.112 158.216 22.616C157.752 22.104 157.128 21.848 156.344 21.848C155.512 21.848 154.848 22.112 154.352 22.64C153.872 23.168 153.632 23.92 153.632 24.896V32H149.528V18.608H153.632V21.056C154.016 20.256 154.584 19.624 155.336 19.16C156.104 18.696 157 18.464 158.024 18.464ZM182.619 18.464C184.267 18.464 185.563 18.976 186.507 20C187.451 21.008 187.923 22.416 187.923 24.224V32H183.843V24.704C183.843 23.856 183.611 23.2 183.147 22.736C182.699 22.256 182.083 22.016 181.299 22.016C180.483 22.016 179.835 22.272 179.355 22.784C178.891 23.28 178.659 23.984 178.659 24.896V32H174.555V24.704C174.555 23.856 174.331 23.2 173.883 22.736C173.435 22.256 172.819 22.016 172.035 22.016C171.219 22.016 170.571 22.264 170.091 22.76C169.611 23.256 169.371 23.968 169.371 24.896V32H165.267V18.608H169.371V20.888C169.723 20.136 170.259 19.544 170.979 19.112C171.715 18.68 172.571 18.464 173.547 18.464C174.571 18.464 175.475 18.704 176.259 19.184C177.043 19.648 177.635 20.32 178.035 21.2C178.499 20.368 179.131 19.704 179.931 19.208C180.747 18.712 181.643 18.464 182.619 18.464ZM195.258 18.44C196.282 18.44 197.162 18.672 197.898 19.136C198.634 19.6 199.178 20.232 199.53 21.032V18.608H203.61V32H199.53V29.576C199.178 30.376 198.634 31.008 197.898 31.472C197.162 31.936 196.282 32.168 195.258 32.168C194.154 32.168 193.162 31.896 192.282 31.352C191.418 30.792 190.73 29.992 190.218 28.952C189.722 27.912 189.474 26.696 189.474 25.304C189.474 23.896 189.722 22.68 190.218 21.656C190.73 20.616 191.418 19.824 192.282 19.28C193.162 18.72 194.154 18.44 195.258 18.44ZM196.578 22.04C195.698 22.04 194.986 22.328 194.442 22.904C193.914 23.48 193.65 24.28 193.65 25.304C193.65 26.328 193.914 27.128 194.442 27.704C194.986 28.28 195.698 28.568 196.578 28.568C197.442 28.568 198.146 28.272 198.69 27.68C199.25 27.088 199.53 26.296 199.53 25.304C199.53 24.296 199.25 23.504 198.69 22.928C198.146 22.336 197.442 22.04 196.578 22.04ZM210.059 21.128C210.571 20.312 211.227 19.664 212.027 19.184C212.843 18.704 213.723 18.464 214.667 18.464V22.856H213.491C212.403 22.856 211.555 23.088 210.947 23.552C210.355 24.016 210.059 24.8 210.059 25.904V32H205.955V18.608H210.059V21.128ZM220.777 18.44C222.473 18.44 223.825 18.864 224.833 19.712C225.857 20.56 226.497 21.68 226.753 23.072H222.913C222.801 22.528 222.545 22.104 222.145 21.8C221.761 21.48 221.273 21.32 220.681 21.32C220.217 21.32 219.865 21.424 219.625 21.632C219.385 21.824 219.265 22.104 219.265 22.472C219.265 22.888 219.481 23.2 219.913 23.408C220.361 23.616 221.057 23.824 222.001 24.032C223.025 24.272 223.865 24.52 224.521 24.776C225.177 25.016 225.745 25.416 226.225 25.976C226.705 26.536 226.945 27.288 226.945 28.232C226.945 29 226.737 29.68 226.321 30.272C225.905 30.864 225.305 31.328 224.521 31.664C223.737 32 222.809 32.168 221.737 32.168C219.929 32.168 218.481 31.768 217.393 30.968C216.305 30.168 215.641 29.024 215.401 27.536H219.361C219.425 28.112 219.665 28.552 220.081 28.856C220.513 29.16 221.065 29.312 221.737 29.312C222.201 29.312 222.553 29.208 222.793 29C223.033 28.776 223.153 28.488 223.153 28.136C223.153 27.672 222.929 27.344 222.481 27.152C222.049 26.944 221.337 26.728 220.345 26.504C219.353 26.296 218.537 26.072 217.897 25.832C217.257 25.592 216.705 25.208 216.241 24.68C215.777 24.136 215.545 23.4 215.545 22.472C215.545 21.272 216.001 20.304 216.913 19.568C217.825 18.816 219.113 18.44 220.777 18.44Z" fill="black"/>
</svg>
